<svg id="Layer_1" enable-background="new 0 0 496 496" height="512" viewBox="0 0 496 496" width="512" xmlns="http://www.w3.org/2000/svg"><g><path d="m496 277.79c0 45.21-36.79 82-82 82h-286c-57.35 0-104-46.65-104-104 0-49.109 34.189-90.772 80.78-101.4 2.7-59.01 51.55-106.18 111.22-106.18 44.361 0 82.219 25.732 100.28 62.98 56.83-16.073 113.72 26.452 113.72 86.17 37.58 7.46 66 40.69 66 80.43z" fill="#cecccc"/><path d="m54.129 342.033c-9.898-48.692 41.136-86.247 84.467-64.043 9.517-31.366 38.688-54.2 73.203-54.2 44.769 0 80.162 38.289 76.176 83.208 36.385 2.84 65.025 33.222 65.025 70.287 0 38.969-31.639 70.505-70.6 70.505-2.537 0-204.549 0-229.45 0-29.23 0-52.95-23.662-52.95-52.879 0-27.805 21.881-52.878 54.129-52.878z" fill="#e2e0e0"/></g></svg>